<svg width="32" height="32" viewBox="0 0 32 32" fill="none" xmlns="http://www.w3.org/2000/svg">
<path d="M12.4494 16.0548C12.4494 14.0895 14.0418 12.4958 16.0066 12.4958C17.9713 12.4958 19.5645 14.0895 19.5645 16.0548C19.5645 18.0202 17.9713 19.6138 16.0066 19.6138C14.0418 19.6138 12.4494 18.0202 12.4494 16.0548ZM10.5261 16.0548C10.5261 19.0826 12.9797 21.5369 16.0066 21.5369C19.0334 21.5369 21.4871 19.0826 21.4871 16.0548C21.4871 13.0271 19.0334 10.5727 16.0066 10.5727C12.9797 10.5727 10.5261 13.0271 10.5261 16.0548ZM20.4232 10.3554C20.4231 10.6088 20.4982 10.8565 20.6388 11.0672C20.7795 11.278 20.9794 11.4422 21.2134 11.5393C21.4474 11.6364 21.7049 11.6618 21.9534 11.6125C22.2018 11.5632 22.4301 11.4412 22.6093 11.2621C22.7885 11.083 22.9106 10.8548 22.9601 10.6063C23.0096 10.3578 22.9843 10.1002 22.8875 9.86609C22.7906 9.63195 22.6266 9.4318 22.416 9.29094C22.2054 9.15008 21.9578 9.07485 21.7045 9.07474H21.704C21.3645 9.0749 21.0389 9.20986 20.7987 9.44998C20.5586 9.69009 20.4235 10.0157 20.4232 10.3554ZM11.6946 24.7449C10.6541 24.6975 10.0885 24.5242 9.71261 24.3777C9.21431 24.1836 8.85877 23.9525 8.48495 23.5791C8.11114 23.2057 7.87975 22.8504 7.68661 22.3519C7.54009 21.9761 7.36676 21.4102 7.31945 20.3693C7.26771 19.244 7.25738 18.9059 7.25738 16.0549C7.25738 13.2039 7.26857 12.8667 7.31945 11.7405C7.36684 10.6996 7.54145 10.1348 7.68661 9.75785C7.8806 9.2594 8.11165 8.90376 8.48495 8.52983C8.85825 8.15591 9.21345 7.92445 9.71261 7.73126C10.0883 7.5847 10.6541 7.41132 11.6946 7.364C12.8197 7.31224 13.1576 7.30191 16.0066 7.30191C18.8555 7.30191 19.1938 7.31309 20.3198 7.364C21.3603 7.4114 21.925 7.58606 22.3018 7.73126C22.8001 7.92445 23.1556 8.15643 23.5294 8.52983C23.9033 8.90324 24.1338 9.2594 24.3278 9.75785C24.4743 10.1336 24.6476 10.6996 24.6949 11.7405C24.7467 12.8667 24.757 13.2039 24.757 16.0549C24.757 18.9059 24.7467 19.2431 24.6949 20.3693C24.6476 21.4102 24.4734 21.976 24.3278 22.3519C24.1338 22.8504 23.9028 23.206 23.5294 23.5791C23.1561 23.9522 22.8001 24.1836 22.3018 24.3777C21.9261 24.5242 21.3603 24.6976 20.3198 24.7449C19.1947 24.7967 18.8568 24.807 16.0066 24.807C13.1563 24.807 12.8193 24.7967 11.6946 24.7449ZM11.6063 5.44332C10.4701 5.49507 9.69366 5.67529 9.01562 5.9392C8.31342 6.21174 7.71897 6.57738 7.12495 7.17063C6.53093 7.76388 6.16634 8.35944 5.89387 9.06185C5.63004 9.74051 5.44988 10.5167 5.39813 11.6532C5.34554 12.7916 5.3335 13.1555 5.3335 16.0548C5.3335 18.9541 5.34554 19.318 5.39813 20.4564C5.44988 21.593 5.63004 22.3691 5.89387 23.0478C6.16634 23.7498 6.53101 24.346 7.12495 24.939C7.71888 25.532 8.31342 25.8971 9.01562 26.1704C9.69494 26.4343 10.4701 26.6145 11.6063 26.6663C12.7449 26.7181 13.1081 26.731 16.0066 26.731C18.905 26.731 19.2688 26.7189 20.4069 26.6663C21.5431 26.6145 22.319 26.4343 22.9975 26.1704C23.6993 25.8971 24.2942 25.5322 24.8882 24.939C25.4822 24.3457 25.846 23.7498 26.1192 23.0478C26.3831 22.3691 26.5641 21.5929 26.615 20.4564C26.6667 19.3172 26.6788 18.9541 26.6788 16.0548C26.6788 13.1555 26.6667 12.7916 26.615 11.6532C26.5632 10.5166 26.3831 9.74008 26.1192 9.06185C25.846 8.35987 25.4813 7.76482 24.8882 7.17063C24.2951 6.57644 23.6993 6.21174 22.9984 5.9392C22.319 5.67529 21.5431 5.49422 20.4077 5.44332C19.2697 5.39156 18.9059 5.37866 16.0074 5.37866C13.109 5.37866 12.7449 5.3907 11.6063 5.44332Z" fill="white"/>
<path d="M12.4494 16.0548C12.4494 14.0895 14.0418 12.4958 16.0066 12.4958C17.9713 12.4958 19.5645 14.0895 19.5645 16.0548C19.5645 18.0202 17.9713 19.6138 16.0066 19.6138C14.0418 19.6138 12.4494 18.0202 12.4494 16.0548ZM10.5261 16.0548C10.5261 19.0826 12.9797 21.5369 16.0066 21.5369C19.0334 21.5369 21.4871 19.0826 21.4871 16.0548C21.4871 13.0271 19.0334 10.5727 16.0066 10.5727C12.9797 10.5727 10.5261 13.0271 10.5261 16.0548ZM20.4232 10.3554C20.4231 10.6088 20.4982 10.8565 20.6388 11.0672C20.7795 11.278 20.9794 11.4422 21.2134 11.5393C21.4474 11.6364 21.7049 11.6618 21.9534 11.6125C22.2018 11.5632 22.4301 11.4412 22.6093 11.2621C22.7885 11.083 22.9106 10.8548 22.9601 10.6063C23.0096 10.3578 22.9843 10.1002 22.8875 9.86609C22.7906 9.63195 22.6266 9.4318 22.416 9.29094C22.2054 9.15008 21.9578 9.07485 21.7045 9.07474H21.704C21.3645 9.0749 21.0389 9.20986 20.7987 9.44998C20.5586 9.69009 20.4235 10.0157 20.4232 10.3554ZM11.6946 24.7449C10.6541 24.6975 10.0885 24.5242 9.71261 24.3777C9.21431 24.1836 8.85877 23.9525 8.48495 23.5791C8.11114 23.2057 7.87975 22.8504 7.68661 22.3519C7.54009 21.9761 7.36676 21.4102 7.31945 20.3693C7.26771 19.244 7.25738 18.9059 7.25738 16.0549C7.25738 13.2039 7.26857 12.8667 7.31945 11.7405C7.36684 10.6996 7.54145 10.1348 7.68661 9.75785C7.8806 9.2594 8.11165 8.90376 8.48495 8.52983C8.85825 8.15591 9.21345 7.92445 9.71261 7.73126C10.0883 7.5847 10.6541 7.41132 11.6946 7.364C12.8197 7.31224 13.1576 7.30191 16.0066 7.30191C18.8555 7.30191 19.1938 7.31309 20.3198 7.364C21.3603 7.4114 21.925 7.58606 22.3018 7.73126C22.8001 7.92445 23.1556 8.15643 23.5294 8.52983C23.9033 8.90324 24.1338 9.2594 24.3278 9.75785C24.4743 10.1336 24.6476 10.6996 24.6949 11.7405C24.7467 12.8667 24.757 13.2039 24.757 16.0549C24.757 18.9059 24.7467 19.2431 24.6949 20.3693C24.6476 21.4102 24.4734 21.976 24.3278 22.3519C24.1338 22.8504 23.9028 23.206 23.5294 23.5791C23.1561 23.9522 22.8001 24.1836 22.3018 24.3777C21.9261 24.5242 21.3603 24.6976 20.3198 24.7449C19.1947 24.7967 18.8568 24.807 16.0066 24.807C13.1563 24.807 12.8193 24.7967 11.6946 24.7449ZM11.6063 5.44332C10.4701 5.49507 9.69366 5.67529 9.01562 5.9392C8.31342 6.21174 7.71897 6.57738 7.12495 7.17063C6.53093 7.76388 6.16634 8.35944 5.89387 9.06185C5.63004 9.74051 5.44988 10.5167 5.39813 11.6532C5.34554 12.7916 5.3335 13.1555 5.3335 16.0548C5.3335 18.9541 5.34554 19.318 5.39813 20.4564C5.44988 21.593 5.63004 22.3691 5.89387 23.0478C6.16634 23.7498 6.53101 24.346 7.12495 24.939C7.71888 25.532 8.31342 25.8971 9.01562 26.1704C9.69494 26.4343 10.4701 26.6145 11.6063 26.6663C12.7449 26.7181 13.1081 26.731 16.0066 26.731C18.905 26.731 19.2688 26.7189 20.4069 26.6663C21.5431 26.6145 22.319 26.4343 22.9975 26.1704C23.6993 25.8971 24.2942 25.5322 24.8882 24.939C25.4822 24.3457 25.846 23.7498 26.1192 23.0478C26.3831 22.3691 26.5641 21.5929 26.615 20.4564C26.6667 19.3172 26.6788 18.9541 26.6788 16.0548C26.6788 13.1555 26.6667 12.7916 26.615 11.6532C26.5632 10.5166 26.3831 9.74008 26.1192 9.06185C25.846 8.35987 25.4813 7.76482 24.8882 7.17063C24.2951 6.57644 23.6993 6.21174 22.9984 5.9392C22.319 5.67529 21.5431 5.49422 20.4077 5.44332C19.2697 5.39156 18.9059 5.37866 16.0074 5.37866C13.109 5.37866 12.7449 5.3907 11.6063 5.44332Z" fill="white"/>
</svg>
