<svg xmlns="http://www.w3.org/2000/svg" width="129" height="21" viewBox="0 0 129 21" fill="none">
  <path d="M22.2679 2.9716V20.2528H16.2191L4.44221 7.29024V20.2528H0V2.9716H6.02538L17.8256 15.9576V2.9716H22.2679Z" fill="white"/>
  <path d="M23.9946 12.995C23.9946 7.63761 28.0427 5.46661 34.0681 5.46661C40.0935 5.46661 44.1416 7.63761 44.1416 12.995C44.1416 18.3524 40.0668 20.5 34.0681 20.5C28.0694 20.5 23.9946 18.329 23.9946 12.995ZM39.8931 12.995C39.8931 9.95892 37.9659 8.99701 34.0681 8.99701C30.1703 8.99701 28.2164 9.95892 28.2164 12.995C28.2164 16.0311 30.1436 16.9696 34.0681 16.9696C37.9926 16.9696 39.8931 16.0077 39.8931 12.995Z" fill="white"/>
  <path d="M61.3492 5.95758V9.48797C59.9665 9.14061 58.8543 8.99366 57.6218 8.99366C55.2504 8.99366 52.5349 9.53807 49.9698 11.5354V20.2495H45.748V5.70708H49.9698V8.17535C52.1408 6.22478 54.7093 5.45992 57.4247 5.45992C59.1515 5.45992 60.3639 5.70708 61.3492 5.95424V5.95758Z" fill="white"/>
  <path d="M77.3215 15.0424H81.5199C80.5579 18.7465 76.9541 20.4967 71.57 20.4967C66.1859 20.4967 61.7437 18.3257 61.7437 12.9917C61.7437 7.65765 65.9153 5.46326 71.8171 5.46326C77.3482 5.46326 81.767 7.36372 81.767 13.9803H66.0656C66.5332 16.3016 68.7577 17.0665 71.57 17.0665C74.3823 17.0665 76.2593 16.522 77.3215 15.0424ZM66.2126 11.2882H77.248C76.5332 9.24081 74.4591 8.67302 71.7938 8.67302C68.9046 8.67302 66.8806 9.24081 66.2159 11.2882H66.2126Z" fill="white"/>
  <path d="M101.613 5.71042L94.2316 20.2528H88.2062L80.8481 5.71042H85.5375L91.2389 17.2635L96.9169 5.71042H101.606H101.613Z" fill="white"/>
  <path d="M106.897 0.5V4.17735H102.675V0.5H106.897ZM106.897 5.71041V20.2528H102.675V5.71041H106.897Z" fill="white"/>
  <path d="M128.203 12.9182V20.2495H123.958V18.4459C121.39 19.7051 118.551 20.4933 115.12 20.4933C111.046 20.4933 108.504 19.184 108.504 15.9008C108.504 12.1232 112.652 10.9375 117.268 10.9375C119.76 10.9375 122.058 11.3317 123.958 11.9729C123.958 9.2074 120.404 8.98696 118.427 8.98696C116.45 8.98696 114.205 9.16065 111.219 10.0491L109.713 6.96291C112.676 6.00099 115.588 5.45657 118.624 5.45657C124.696 5.45657 128.153 7.40713 128.203 12.9115V12.9182ZM123.955 14.5982C122.475 14.1306 120.475 13.7097 117.782 13.7097C114.623 13.7097 112.722 14.2542 112.722 15.7338C112.722 17.2134 114.128 17.3871 116.326 17.3871C118.524 17.3871 121.78 16.6723 123.955 15.7338V14.5982Z" fill="white"/>
</svg>