<svg width="500" height="101" viewBox="0 0 500 101" fill="none" xmlns="http://www.w3.org/2000/svg">
<path d="M106.73 25.4056V84.1765H86.1588L46.1073 40.0927V84.1765H31V25.4056H51.4915L91.6224 69.569V25.4056H106.73Z" fill="#0D0D0D"/>
<path d="M112.602 59.4936C112.602 41.274 126.369 33.8907 146.861 33.8907C167.352 33.8907 181.119 41.274 181.119 59.4936C181.119 77.7133 167.261 85.0171 146.861 85.0171C126.46 85.0171 112.602 77.6338 112.602 59.4936ZM166.671 59.4936C166.671 49.1684 160.117 45.8971 146.861 45.8971C133.605 45.8971 126.96 49.1684 126.96 59.4936C126.96 69.8189 133.514 73.0107 146.861 73.0107C160.207 73.0107 166.671 69.7394 166.671 59.4936Z" fill="#0D0D0D"/>
<path d="M239.64 35.5603V47.5666C234.937 46.3853 231.155 45.8855 226.963 45.8855C218.899 45.8855 209.664 47.737 200.94 54.5296V84.165H186.583V34.7084H200.94V43.1026C208.323 36.469 217.058 33.8678 226.293 33.8678C232.166 33.8678 236.289 34.7084 239.64 35.5489V35.5603Z" fill="#0D0D0D"/>
<path d="M293.959 66.4566H308.237C304.966 79.0536 292.71 85.0056 274.399 85.0056C256.089 85.0056 240.981 77.6224 240.981 59.4822C240.981 41.3421 255.168 33.8793 275.24 33.8793C294.05 33.8793 309.078 40.3425 309.078 62.8444H255.68C257.27 70.7389 264.835 73.34 274.399 73.34C283.963 73.34 290.347 71.4886 293.959 66.4566ZM256.179 53.6892H293.709C291.278 46.7262 284.225 44.7952 275.16 44.7952C265.335 44.7952 258.451 46.7262 256.191 53.6892H256.179Z" fill="#0D0D0D"/>
<path d="M376.572 34.7197L351.469 84.1763H330.977L305.954 34.7197H321.901L341.291 74.0102L360.601 34.7197H376.549H376.572Z" fill="#0D0D0D"/>
<path d="M394.541 17V29.5061H380.184V17H394.541ZM394.541 34.7198V84.1765H380.184V34.7198H394.541Z" fill="#0D0D0D"/>
<path d="M467 59.2323V84.165H452.563V78.0312C443.828 82.3135 434.173 84.9942 422.507 84.9942C408.649 84.9942 400.005 80.5415 400.005 69.3757C400.005 56.5288 414.113 52.4964 429.811 52.4964C438.285 52.4964 446.1 53.8368 452.563 56.0177C452.563 46.6125 440.477 45.8628 433.753 45.8628C427.028 45.8628 419.395 46.4535 409.24 49.475L404.117 38.9793C414.193 35.708 424.098 33.8565 434.423 33.8565C455.073 33.8565 466.83 40.4901 467 59.2095V59.2323ZM452.552 64.9458C447.52 63.3555 440.716 61.9243 431.56 61.9243C420.815 61.9243 414.352 63.7758 414.352 68.8078C414.352 73.8398 419.134 74.4305 426.608 74.4305C434.082 74.4305 445.157 71.9996 452.552 68.8078V64.9458Z" fill="#0D0D0D"/>
</svg>
