<svg width="149" height="28" viewBox="0 0 149 28" fill="none" xmlns="http://www.w3.org/2000/svg">
<path d="M6.9806 25.9255C4.71603 24.0987 2.4542 22.2697 0.186204 20.447C0.0458665 20.3342 0 20.2214 0 20.0446C0.00821489 16.0724 0.0102686 12.1002 0.00889946 8.12872C0.00889946 7.9547 0.0492893 7.83984 0.190312 7.72359C3.26268 5.19033 6.33026 2.65088 9.39852 0.112803C9.43959 0.0790999 9.48546 0.0508991 9.55871 0V28" fill="#0D0D0D"/>
<path d="M11.381 26.6367C11.3181 25.6738 11.405 24.7115 11.3797 23.7465C11.3338 21.9905 11.3817 20.2324 11.3612 18.4757C11.3496 17.4508 11.442 16.4266 11.3708 15.4011C11.3194 14.6596 11.3995 13.9181 11.4358 13.1774C11.4481 12.9236 11.3099 12.6821 11.379 12.4311C11.5337 11.8691 11.4331 11.2941 11.4057 10.7383C11.3557 9.71347 11.3975 8.69274 11.3934 7.67063C11.392 7.38587 11.3735 7.08116 11.1572 6.8473C13.8496 4.63182 16.5421 2.41564 19.2345 0.199469C19.3413 0.246242 19.2913 0.339786 19.2913 0.407193C19.2954 6.96355 19.2954 13.5199 19.3009 20.0763C19.3009 20.242 19.2509 20.3466 19.1243 20.4497C16.8111 22.3413 14.502 24.2383 12.1909 26.1319" fill="#0D0D0D"/>
<path d="M9.94686 27.5914C9.94549 21.0915 9.94481 14.5908 9.93865 8.09089C9.93865 7.89899 9.99547 7.77862 10.1488 7.66306C10.4938 7.40307 10.8217 7.12037 11.1565 6.84662C11.3728 7.08048 11.392 7.38518 11.3927 7.66994C11.3968 8.69205 11.355 9.71278 11.405 10.7376C11.4317 11.2927 11.533 11.8684 11.3783 12.4304C11.3092 12.6814 11.4474 12.9229 11.4351 13.1767C11.3995 13.9175 11.3187 14.6589 11.3701 15.4004C11.4413 16.426 11.3489 17.4501 11.3605 18.475C11.3804 20.2317 11.3331 21.9898 11.379 23.7458C11.4043 24.7108 11.3167 25.6731 11.3804 26.636" fill="#0D0D0D"/>
<path d="M49.0804 6.91862V23.1738H43.3751L32.267 10.9808V23.1738H28.0771V6.91862H33.7603L44.8904 19.1335V6.91862H49.0804Z" fill="#0D0D0D"/>
<path d="M50.7092 16.3468C50.7092 11.3076 54.5274 9.26547 60.2107 9.26547C65.8939 9.26547 69.7121 11.3076 69.7121 16.3468C69.7121 21.3861 65.8687 23.4062 60.2107 23.4062C54.5526 23.4062 50.7092 21.3641 50.7092 16.3468ZM65.7049 16.3468C65.7049 13.491 63.8871 12.5862 60.2107 12.5862C56.5342 12.5862 54.6913 13.491 54.6913 16.3468C54.6913 19.2027 56.509 20.0855 60.2107 20.0855C63.9123 20.0855 65.7049 19.1807 65.7049 16.3468Z" fill="#0D0D0D"/>
<path d="M85.9425 13.048C84.6383 12.7213 83.5892 12.5831 82.4267 12.5831C80.19 12.5831 77.6288 13.0952 75.2093 14.9739V23.1706H71.2273V9.49165H75.2093V11.8134C77.257 9.97861 79.6796 9.25916 82.2409 9.25916C83.8696 9.25916 85.0132 9.49165 85.9425 9.72413V13.048Z" fill="#0D0D0D"/>
<path d="M101.008 18.2727H104.968C104.06 21.7568 100.661 23.4031 95.5827 23.4031C90.5044 23.4031 86.3144 21.361 86.3144 16.3437C86.3144 11.3264 90.2492 9.26232 95.8158 9.26232C101.033 9.26232 105.201 11.0499 105.201 17.2736H90.391C90.832 19.4571 92.9301 20.1766 95.5827 20.1766C98.2353 20.1766 100.006 19.6645 101.008 18.2727ZM90.5296 14.7414H100.938C100.264 12.8156 98.3078 12.2815 95.7938 12.2815C93.0687 12.2815 91.1596 12.8156 90.5327 14.7414H90.5296Z" fill="#0D0D0D"/>
<path d="M123.92 9.49477L116.958 23.1737H111.275L104.334 9.49477H108.757L114.135 20.3619L119.491 9.49477H123.92Z" fill="#0D0D0D"/>
<path d="M128.904 4.59376V8.05276H124.922V4.59376H128.904ZM128.904 9.4948V23.1737H124.922V9.4948H128.904Z" fill="#0D0D0D"/>
<path d="M149 23.1706H144.996V21.4741C142.573 22.6585 139.896 23.3999 136.66 23.3999C132.817 23.3999 130.419 22.1684 130.419 19.0801C130.419 15.5268 134.332 14.4115 138.686 14.4115C141.036 14.4115 143.203 14.7822 144.996 15.3854C144.996 12.7841 141.644 12.5768 139.779 12.5768C137.914 12.5768 135.797 12.7401 132.981 13.5758L131.56 10.6729C134.354 9.76809 137.101 9.256 139.965 9.256C145.692 9.256 148.953 11.0907 149 16.2683V23.1706ZM144.993 17.8548C143.597 17.415 141.71 17.0191 139.171 17.0191C136.191 17.0191 134.398 17.5312 134.398 18.923C134.398 20.3148 135.724 20.4781 137.797 20.4781C139.87 20.4781 142.942 19.8058 144.993 18.923V17.8548Z" fill="#0D0D0D"/>
</svg>
