<svg width="500" height="100" viewBox="0 0 500 100" fill="none" xmlns="http://www.w3.org/2000/svg">
<path d="M106.73 24.4056V83.1765H86.1588L46.1073 39.0927V83.1765H31V24.4056H51.4915L91.6224 68.569V24.4056H106.73Z" fill="white"/>
<path d="M112.602 58.4937C112.602 40.274 126.369 32.8907 146.861 32.8907C167.352 32.8907 181.119 40.274 181.119 58.4937C181.119 76.7133 167.261 84.0171 146.861 84.0171C126.46 84.0171 112.602 76.6338 112.602 58.4937ZM166.671 58.4937C166.671 48.1684 160.117 44.8971 146.861 44.8971C133.605 44.8971 126.96 48.1684 126.96 58.4937C126.96 68.8189 133.514 72.0108 146.861 72.0108C160.207 72.0108 166.671 68.7394 166.671 58.4937Z" fill="white"/>
<path d="M239.64 34.5603V46.5666C234.937 45.3853 231.155 44.8855 226.963 44.8855C218.899 44.8855 209.664 46.737 200.94 53.5296V83.165H186.583V33.7084H200.94V42.1026C208.323 35.469 217.058 32.8678 226.293 32.8678C232.166 32.8678 236.289 33.7084 239.64 34.5489V34.5603Z" fill="white"/>
<path d="M293.959 65.4566H308.237C304.966 78.0536 292.71 84.0056 274.399 84.0056C256.089 84.0056 240.981 76.6224 240.981 58.4822C240.981 40.3421 255.168 32.8793 275.24 32.8793C294.05 32.8793 309.078 39.3425 309.078 61.8444H255.68C257.27 69.7389 264.835 72.34 274.399 72.34C283.963 72.34 290.347 70.4886 293.959 65.4566ZM256.179 52.6892H293.709C291.278 45.7262 284.225 43.7952 275.16 43.7952C265.335 43.7952 258.451 45.7262 256.191 52.6892H256.179Z" fill="white"/>
<path d="M376.572 33.7197L351.469 83.1763H330.977L305.954 33.7197H321.901L341.291 73.0102L360.601 33.7197H376.549H376.572Z" fill="white"/>
<path d="M394.541 16V28.5061H380.184V16H394.541ZM394.541 33.7198V83.1765H380.184V33.7198H394.541Z" fill="white"/>
<path d="M467 58.2323V83.165H452.563V77.0312C443.828 81.3135 434.173 83.9942 422.507 83.9942C408.649 83.9942 400.005 79.5415 400.005 68.3757C400.005 55.5288 414.113 51.4964 429.811 51.4964C438.285 51.4964 446.1 52.8368 452.563 55.0177C452.563 45.6125 440.477 44.8628 433.753 44.8628C427.028 44.8628 419.395 45.4535 409.24 48.475L404.117 37.9793C414.193 34.708 424.098 32.8565 434.423 32.8565C455.073 32.8565 466.83 39.4901 467 58.2095V58.2323ZM452.552 63.9458C447.52 62.3555 440.716 60.9243 431.56 60.9243C420.815 60.9243 414.352 62.7758 414.352 67.8078C414.352 72.8398 419.134 73.4305 426.608 73.4305C434.082 73.4305 445.157 70.9996 452.552 67.8078V63.9458Z" fill="white"/>
</svg>
