<svg width="149" height="29" viewBox="0 0 149 29" fill="none" xmlns="http://www.w3.org/2000/svg">
<path d="M6.9806 26.4255C4.71603 24.5987 2.4542 22.7697 0.186204 20.947C0.0458665 20.8342 0 20.7214 0 20.5446C0.00821489 16.5724 0.0102686 12.6002 0.00889946 8.62872C0.00889946 8.4547 0.0492893 8.33984 0.190312 8.22359C3.26268 5.69033 6.33026 3.15088 9.39852 0.612803C9.43959 0.5791 9.48546 0.550899 9.55871 0.5V28.5" fill="white"/>
<path d="M11.381 27.1367C11.3181 26.1738 11.405 25.2115 11.3797 24.2465C11.3338 22.4905 11.3817 20.7324 11.3612 18.9757C11.3496 17.9508 11.442 16.9266 11.3708 15.9011C11.3194 15.1596 11.3995 14.4181 11.4358 13.6774C11.4481 13.4236 11.3099 13.1821 11.379 12.9311C11.5337 12.3691 11.4331 11.7941 11.4057 11.2383C11.3557 10.2135 11.3975 9.19274 11.3934 8.17063C11.392 7.88587 11.3735 7.58116 11.1572 7.3473C13.8496 5.13182 16.5421 2.91564 19.2345 0.699469C19.3413 0.746242 19.2913 0.839786 19.2913 0.907193C19.2954 7.46355 19.2954 14.0199 19.3009 20.5763C19.3009 20.742 19.2509 20.8466 19.1243 20.9497C16.8111 22.8413 14.502 24.7383 12.1909 26.6319" fill="white"/>
<path d="M9.94686 28.0914C9.94549 21.5915 9.94481 15.0908 9.93865 8.59089C9.93865 8.39899 9.99547 8.27862 10.1488 8.16306C10.4938 7.90307 10.8217 7.62037 11.1565 7.34662C11.3728 7.58048 11.392 7.88518 11.3927 8.16994C11.3968 9.19205 11.355 10.2128 11.405 11.2376C11.4317 11.7927 11.533 12.3684 11.3783 12.9304C11.3092 13.1814 11.4474 13.4229 11.4351 13.6767C11.3995 14.4175 11.3187 15.1589 11.3701 15.9004C11.4413 16.926 11.3489 17.9501 11.3605 18.975C11.3804 20.7317 11.3331 22.4898 11.379 24.2458C11.4043 25.2108 11.3167 26.1731 11.3804 27.136" fill="white"/>
<path d="M49.0804 7.41862V23.6738H43.3751L32.267 11.4808V23.6738H28.0771V7.41862H33.7603L44.8904 19.6335V7.41862H49.0804Z" fill="white"/>
<path d="M50.7092 16.8468C50.7092 11.8076 54.5274 9.76547 60.2107 9.76547C65.8939 9.76547 69.7121 11.8076 69.7121 16.8468C69.7121 21.8861 65.8687 23.9062 60.2107 23.9062C54.5526 23.9062 50.7092 21.8641 50.7092 16.8468ZM65.7049 16.8468C65.7049 13.991 63.8871 13.0862 60.2107 13.0862C56.5342 13.0862 54.6913 13.991 54.6913 16.8468C54.6913 19.7027 56.509 20.5855 60.2107 20.5855C63.9123 20.5855 65.7049 19.6807 65.7049 16.8468Z" fill="white"/>
<path d="M85.9425 13.548C84.6383 13.2213 83.5892 13.0831 82.4267 13.0831C80.19 13.0831 77.6288 13.5952 75.2093 15.4739V23.6706H71.2273V9.99165H75.2093V12.3134C77.257 10.4786 79.6796 9.75916 82.2409 9.75916C83.8696 9.75916 85.0132 9.99165 85.9425 10.2241V13.548Z" fill="white"/>
<path d="M101.008 18.7727H104.968C104.06 22.2568 100.661 23.9031 95.5827 23.9031C90.5044 23.9031 86.3144 21.861 86.3144 16.8437C86.3144 11.8264 90.2492 9.76232 95.8158 9.76232C101.033 9.76232 105.201 11.5499 105.201 17.7736H90.391C90.832 19.9571 92.9301 20.6766 95.5827 20.6766C98.2353 20.6766 100.006 20.1645 101.008 18.7727ZM90.5296 15.2414H100.938C100.264 13.3156 98.3078 12.7815 95.7938 12.7815C93.0687 12.7815 91.1596 13.3156 90.5327 15.2414H90.5296Z" fill="white"/>
<path d="M123.92 9.99477L116.958 23.6737H111.275L104.334 9.99477H108.757L114.135 20.8619L119.491 9.99477H123.92Z" fill="white"/>
<path d="M128.904 5.09376V8.55276H124.922V5.09376H128.904ZM128.904 9.9948V23.6737H124.922V9.9948H128.904Z" fill="white"/>
<path d="M149 23.6706H144.996V21.9741C142.573 23.1585 139.896 23.8999 136.66 23.8999C132.817 23.8999 130.419 22.6684 130.419 19.5801C130.419 16.0268 134.332 14.9115 138.686 14.9115C141.036 14.9115 143.203 15.2822 144.996 15.8854C144.996 13.2841 141.644 13.0768 139.779 13.0768C137.914 13.0768 135.797 13.2401 132.981 14.0758L131.56 11.1729C134.354 10.2681 137.101 9.756 139.965 9.756C145.692 9.756 148.953 11.5907 149 16.7683V23.6706ZM144.993 18.3548C143.597 17.915 141.71 17.5191 139.171 17.5191C136.191 17.5191 134.398 18.0312 134.398 19.423C134.398 20.8148 135.724 20.9781 137.797 20.9781C139.87 20.9781 142.942 20.3058 144.993 19.423V18.3548Z" fill="white"/>
</svg>
